<svg xmlns="http://www.w3.org/2000/svg" width="143" height="180" fill-rule="evenodd" clip-rule="evenodd" image-rendering="optimizeQuality" shape-rendering="geometricPrecision" text-rendering="geometricPrecision" viewBox="0 0 18494 23305"><polygon fill="#f0ba7d" points="7625 9978 8299 9978 10343 9978 11017 9978 11292 12838 11780 13229 12809 13885 9321 22125 5832 13885 6862 13229 7350 12838"/><polygon fill="#ccd2d9" points="6537 13449 3725 14347 9353 22133 14130 14103 12141 13467 10404 14691 8307 14691"/><path fill="#ff7069" d="M8680 14558l240 593 -534 6757 792 607c61,20 121,40 182,59l869 -666 -534 -6757 240 -593 -627 -25 -628 25z"/><path fill="#f2f2f2" d="M7313 12419c71,4 -830,1021 -830,1021l767 2628 2058 -1535c-1132,-555 -1808,-1275 -1995,-2114z"/><path fill="#f2f2f2" d="M11302 12419c-71,4 830,1021 830,1021l-767 2628 -2058 -1535c1132,-555 1808,-1275 1995,-2114z"/><path fill="#fed298" d="M5357 4153c0,266 -97,526 -90,781 -909,-169 -470,2531 44,2903 41,29 142,-37 226,-91 179,993 1701,3647 2669,4764 269,310 1913,305 2180,12 991,-1092 2512,-3777 2691,-4776 85,54 186,120 227,91 514,-372 953,-3072 44,-2903 7,-255 -90,-515 -90,-781 -50,-2097 -1950,-3144 -3951,-3152 -2000,8 -3900,1055 -3950,3152z"/><path fill="#666" d="M12191 1465c287,-33 1323,284 1447,1380 124,1096 65,2105 65,2105 0,0 -607,153 -683,775 -76,622 -22,622 -22,622l-220 -49 -156 -1067c-908,-568 7,-1411 -901,-1608 -2452,1747 -4616,1448 -5591,626 0,0 228,860 52,1167 -175,306 -71,789 -71,789l-228 -11c0,0 42,-1266 -465,-1260 -1923,-3176 4166,-7121 6773,-3469z"/><path fill="#6b7f9e" d="M9247 21471l-2719 -8093 -5148 1587c0,0 -683,541 -838,1353 -124,651 -327,2460 -532,4352 -94,868 462,1660 1310,1867 2030,496 4972,762 7927,768 2954,-6 5897,-272 7926,-768 849,-207 1404,-999 1310,-1867 -205,-1892 -407,-3701 -532,-4352 -155,-812 -838,-1353 -838,-1353l-5147 -1587 -2719 8093z"/><path fill="#8597b1" d="M9241 23223l-6 8 -3455 -5934 802 -491c54,-70 -7,-125 -7,-125l-936 -315c-165,17 -220,-176 -220,-176l250 -2544 857 -266 2715 7861 2727 -7861 856 266 251 2544c0,0 -55,193 -220,176l-937 315c0,0 -61,55 -6,125l801 491 -3467 5934 -5 -8z"/></svg>