<?xml version="1.0" encoding="utf-8"?>
<!-- Generator: Adobe Illustrator 19.2.1, SVG Export Plug-In . SVG Version: 6.00 Build 0)  -->
<svg version="1.1" id="layer" xmlns="http://www.w3.org/2000/svg" xmlns:xlink="http://www.w3.org/1999/xlink" x="0px" y="0px"
	 viewBox="0 0 652 652" style="enable-background:new 0 0 652 652;" xml:space="preserve">
<style type="text/css">
	.st0{fill:#E2001A;}
	.st1{fill:#00579D;}
	.st2{fill-rule:evenodd;clip-rule:evenodd;}
	.st3{fill-rule:evenodd;clip-rule:evenodd;fill:#FABA00;}
	.st4{fill-rule:evenodd;clip-rule:evenodd;fill:#00925B;}
</style>
<polygon class="st0" points="414,403.3 639.4,273.2 639.4,235.3 414,365.4 "/>
<polygon class="st1" points="414,239.6 639.4,109.5 639.4,71.6 414,201.8 "/>
<g>
	<path class="st2" d="M28.9,568.1v-84.3H-37v84.3h-39.3h-4.3V363.4H-37v85.7h65.8v-85.7h43.6v204.7H28.9z M639.4,495
		c0-12.2,2.6-23.8,7.9-34.8c2.4-4.6,5.6-8.8,9.6-12.2c2.4-2.2,5.2-3.7,8.2-4.3c4.6-0.9,9.4-0.8,11.4,4c0.6,1.2,0.9,2.6,1.2,3.9
		c1.4,7,1.5,19.9,1.5,24.8v91.7H721V459.7c-0.2-14.2-2.9-29.7-12.8-40.5c-8-8.9-18-12.9-28.7-13.1c-17.2-0.2-35.3,10.4-40.1,27.1
		v-93.9l-41.8,24.1v204.7h41.8V495z M93.6,538.8c-4.5-7.5-7.9-16.1-10.1-25.8c-2.3-9.7-3.4-20.5-3.4-32.2c0-7.3,0.5-14.6,1.8-21.9
		c1.1-6.3,2.9-12.6,5.5-18.5c3.1-7,7.4-13.5,12.9-18.8c6.4-6.1,14.4-10.5,23.9-13.1c6.4-1.8,13.4-2.6,21.2-2.6
		c5.6,0,11.3,0.5,16.8,1.9c6.9,1.7,12.9,4.4,18.2,8.2c6.3,4.4,11.3,10.3,15,17.1c4.5,8.2,7.1,17.8,8,28.5c0.4,5.1,0.4,10,0.4,15.1
		v7.2h-42.2h-42.2c0.5,6.7,2.1,13.5,4.4,19.8c2.1,5.6,5,11.1,8.5,16.1c3.6,4.9,8,9.2,13.2,12.4c7,4.3,14.9,6.3,23.1,6.3
		c8.7,0,17.7-2.4,25.8-5.4l5.7-2.1v33.4l-2.9,1c-7.8,2.7-15.8,4.4-24.6,5.4c-5.4,0.6-11,0.9-16.5,0.9c-5.6-0.1-11.1-0.5-16.5-1.4
		c-5.9-1-11.5-2.7-16.6-5c-5.2-2.2-9.9-5-14.2-8.4C103,551.8,97.7,545.7,93.6,538.8 M163.7,454.2c-0.2-1.5-0.6-3-1-4.4
		c-1.3-3.7-3.4-7-6.6-9.3c-1.5-1-3.2-2-5.4-2.6c-5.8-1.7-12.8-1.5-18.2,1.4c-4.1,2.2-7.3,5.8-9.3,10c-0.8,1.7-1.5,3.3-1.9,4.9H163.7
		z M270.3,442.2V509c0,3.2,0.1,6.3,0.3,9.2c0.3,4.6,1.1,9.8,3.5,13.8c2,3.2,4.9,5.1,8.5,5.9c4.2,1,8.7,0.7,12.9-0.1
		c4.2-0.8,8.3-1.9,12.4-3.1v33.7l-3.5,0.6c-4.7,0.8-9.6,1.5-14.4,1.9c-4.8,0.4-9.6,0.7-14.4,0.7c-4.8,0-9.7-0.4-14.4-1.2
		c-6.6-1.1-13.1-3.4-18.6-7.3c-4.5-3.3-7.9-7.6-10.1-12.8c-1.3-3-2.3-6.1-2.9-9.4c-1.3-6.8-1.2-13.7-1.2-20.6v-78.1h-27.9v-32.8
		h27.9v-46l41.7-24.1l0,70.1H323v-46l41.7-24.1l0.1,70.1H407v32.8h-42.2V509c0,3.2,0.1,6.3,0.3,9.2c0.4,4.6,1.1,9.8,3.5,13.8
		c2,3.2,5,5.1,8.5,5.9c4.2,1,8.7,0.7,12.9-0.1c4.2-0.8,8.3-1.9,12.5-3.1v33.7l-3.5,0.6c-4.7,0.8-9.6,1.5-14.4,1.9
		c-4.7,0.4-9.6,0.7-14.5,0.7c-4.8,0-9.6-0.4-14.3-1.2c-6.6-1.1-13.1-3.4-18.6-7.3c-4.5-3.3-7.9-7.6-10.2-12.8
		c-1.3-3-2.3-6.1-2.9-9.4c-1.3-6.8-1.2-13.7-1.2-20.6v-78.1H270.3z M418.2,568.1H414V409.4h41.8v158.7H418.2z M475.9,537.3
		c-4.4-7.3-7.8-15.7-10-25.5c-1.8-7.6-2.8-15.7-3.1-23.9c-0.3-8.2,0.2-16.4,1.5-24.2c1.2-7.2,3.1-14,5.9-20.3
		c3.9-8.7,9.5-16.6,16.8-22.7c7.6-6.3,17.1-10.9,28.4-13.1c10.7-2.1,23-2.2,33.7,0c8.5,1.7,15.5,4.8,21.2,8.9
		c7.1,5.2,12.3,12.3,15.6,20.4c3.2,7.8,4.6,16.3,4.9,24.8c0.1,2.6,0,5.1,0,7.6h-43.9v-4.2c0-2.3-0.1-4.5-0.3-6.7
		c-0.4-4.4-1.4-9.2-3.9-13.1c-2-3.1-5-5.1-8.6-5.9c-3.2-0.7-6.9-0.6-10.1,0.3c-3.2,0.9-5.9,2.7-8.2,5.1c-2.8,2.9-4.6,6.5-6,10.3
		c-1,2.9-1.8,6.1-2.3,9.5c-1.3,8.2-1,16.8,0.2,24.9c0.8,4.5,1.9,8.9,3.3,13.2c3.7,10.6,10.1,20.3,19.4,26.9
		c5.1,3.6,11.2,6.2,18.3,7.6c6.9,1.4,14.2,1.5,21.1,0.8c5.1-0.5,9.6-1.6,13.8-3.1l5.7-2.1v30.6l-2.9,0.9c-8.8,2.9-18.3,5.1-28.4,6.3
		c-4.9,0.6-10,0.9-15,0.9c-5,0-10-0.3-14.9-1c-8.2-1.2-16.1-3.5-23.2-6.9C492.8,557.9,482.8,548.8,475.9,537.3"/>
	<polygon class="st3" points="414,348.7 639.4,218.6 639.4,180.7 414,310.8 	"/>
	<polygon class="st4" points="414,294.1 639.4,164.1 639.4,126.2 414,256.3 	"/>
</g>
</svg>
